<!DOCTYPE svg PUBLIC "-//W3C//DTD SVG 1.1//EN" "http://www.w3.org/Graphics/SVG/1.1/DTD/svg11.dtd">
<!-- Uploaded to: SVG Repo, www.svgrepo.com, Transformed by: SVG Repo Mixer Tools -->
<svg fill="#000000" height="75px" width="75px" version="1.1" id="Capa_1" xmlns="http://www.w3.org/2000/svg" xmlns:xlink="http://www.w3.org/1999/xlink" viewBox="0 0 476.402 476.402" xml:space="preserve">
<g id="SVGRepo_bgCarrier" stroke-width="0"/>
<g id="SVGRepo_tracerCarrier" stroke-linecap="round" stroke-linejoin="round"/>
<g id="SVGRepo_iconCarrier"> <g> <path d="M278.6,296.323c-1.917-1.095-4.36-0.431-5.458,1.487c-0.097,0.17-8.178,14.182-19.079,24.698 c-0.591-12.02-6.347-23.203-6.66-23.804c-0.688-1.316-2.048-2.144-3.534-2.148c-0.004,0-0.008,0-0.012,0 c-1.48,0-2.841,0.818-3.534,2.127c-0.474,0.894-9.545,18.252-11.288,38.276c-9.559-20.073-13.157-50.939-13.2-51.316 c-0.249-2.195-2.228-3.766-4.424-3.525c-2.195,0.249-3.773,2.229-3.525,4.424c0.224,1.979,5.67,48.699,22.352,66.958 c0.776,0.849,1.855,1.302,2.955,1.302c0.566,0,1.137-0.12,1.675-0.368c1.582-0.729,2.509-2.399,2.293-4.128 c-1.838-14.698,2.901-30.259,6.53-39.516c1.855,5.729,3.447,13.426,1.646,19.908c-0.452,1.626,0.165,3.361,1.543,4.337 c1.378,0.974,3.22,0.981,4.604,0.012c15.789-11.045,28.089-32.363,28.605-33.266C281.184,299.864,280.518,297.42,278.6,296.323z"/> <path d="M474.865,280.658l-45.542-35.617l16.232-2.949c1.278-0.232,2.434-1.006,3.003-2.173c0.935-1.919,0.234-4.126-1.475-5.186 l-22.147-13.737c6.524-2.499,13.252-5.457,20.2-8.924c0.697-0.348,1.323-0.86,1.724-1.527c0.997-1.658,0.686-3.666-0.582-4.932 c-15.174-15.162-46.428-31.295-70.653-42.426c7.738-1.565,16.772-4.708,23.118-11.012c0.675-0.671,1.138-1.555,1.225-2.503 c0.173-1.89-0.955-3.561-2.638-4.161c-7.229-2.582-10.513-6.716-14.672-11.949c-6.727-8.466-15.098-19.001-42.732-25.672 c-41.577-10.031-87.501,0.544-94.107,2.175c-4.003-0.512-8.052-0.783-12.129-0.783H219.96c-0.322-2.581-1.463-5.04-3.333-6.981 c-3.118-3.238-7.746-4.511-12.083-3.32l-24.785,6.807l-2.864-1.554c-11.02-5.981-24.253-5.611-34.903,0.854 c-2.706-0.736-5.575-0.844-8.355-0.235c-6.128,1.339-12.6,1.311-18.718-0.081l-40.836-9.298c-3.963-0.902-7.008-4.084-7.722-8.086 c-0.744-4.167-3.293-7.738-6.996-9.793c-2.646-1.468-5.634-2.034-8.562-1.657l-3.6-6.297c-2.349-4.108-6.506-6.984-11.222-7.371 c-4.396-0.36-8.589,1.311-11.542,4.617c-7.002,7.837-10.337,18.319-9.15,28.759l1.385,12.18c0.157,1.377,0.445,2.733,0.84,4.055 c-1.14,5.41-6.004,29.502-4.678,40.477c0.133,1.101,0.627,2.149,1.487,2.849c0.775,0.63,1.656,0.902,2.513,0.902 c1.254,0,2.46-0.591,3.225-1.634c2.261-3.081,4.099-5.448,5.58-7.274c-0.286,5.901-0.327,12.558,0.145,19.503 c0.085,1.252,0.686,2.455,1.724,3.161c1.717,1.169,3.937,0.842,5.249-0.615c3.324-3.69,8.155-9.571,12.322-14.74l-2.498,25.966 c-0.178,1.854,0.844,3.69,2.596,4.321c0.454,0.164,0.916,0.241,1.37,0.241c1.583,0,3.061-0.945,3.692-2.465 c0.064-0.154,3.585-8.532,8.913-17.508c8.997,3.577,36.793,16.159,55.772,41.522c4.489,5.999,5.78,13.844,3.452,20.985 c-2.272,6.975-7.541,12.193-14.455,14.319c-0.039,0.012-0.078,0.024-0.117,0.036c-3.417,1.03-7.093,0.897-10.452-0.308 c-4.805-1.724-8.901-3.76-12.228-5.718c-7.374-4.34-16.006-5.339-24.01-3.076c-1.476-5.952-3.828-16.718-4.323-26.602 c-0.082-1.627-1.143-3.043-2.682-3.578c-1.539-0.533-3.249-0.083-4.323,1.144c-6.591,7.527-9.228,15.381-9.928,22.304 c-3.224-6.598-6.114-14.3-6.691-21.511c-0.125-1.555-1.141-2.896-2.605-3.435c-1.462-0.54-3.106-0.179-4.21,0.925 c-9.813,9.806-5.472,34.254-2.987,44.877c-2.83-0.278-3.482-0.932-3.515-0.966c-0.266-0.289-0.131-1.971-0.059-2.874 c0.228-2.838,0.651-8.121-4.789-10.839c-3.853-1.925-6.47-0.667-7.688,0.256c-4.234,3.205-3.525,11.204-2.661,15.918 c0.226,25.505,21.083,40.127,57.317,40.127c11.905,0,82.714,17.426,106.885,51.906c8.012,11.429,9.697,23.075,5.151,35.605 c-0.457,1.26-0.253,2.664,0.543,3.741c0.796,1.077,2.092,1.692,3.417,1.618c8.191-0.409,14.75-4.506,19.422-8.769l-1.512,24.175 c-0.083,1.329,0.418,2.668,1.458,3.499c1.7,1.357,4.054,1.12,5.45-0.379l27.878-29.896l29.921,42.416 c0.764,1.083,1.994,1.694,3.269,1.694c0.411,0,0.827-0.063,1.233-0.195c1.667-0.54,2.788-2.103,2.767-3.854l-0.635-50.741 l8.883,9.3c0.895,0.937,2.172,1.476,3.457,1.313c2.113-0.269,3.573-2.056,3.529-4.063l-0.563-25.867l33.524,29.709 c1.548,1.371,3.929,1.365,5.48-0.16c1.08-1.062,1.399-2.683,0.959-4.132l-12.486-41.175l83.843,42.239 c1.864,0.937,4.184,0.299,5.279-1.592c0.761-1.314,0.632-2.967-0.181-4.25l-25.119-39.633l88.228-2.822 c1.706-0.055,3.189-1.186,3.693-2.816s-0.082-3.402-1.46-4.41l-32.554-23.817l44.613,0.595h0.039c1.115,0,2.21-0.433,2.952-1.265 C476.989,284.689,476.631,282.037,474.865,280.658z M338.05,115.667c24.96,6.024,32.071,14.975,38.346,22.871 c3.264,4.106,6.609,8.317,12.021,11.58c-9.924,6.02-23.882,6.559-27.31,6.6c-8.349-3.607-14.625-6.13-17.159-7.133 c-7.962-10.96-20.687-17.465-34.291-17.465h-14.027c-9.129-7.794-19.571-13.71-30.741-17.575 C282.887,111.781,311.725,109.312,338.05,115.667z M167.778,109.077l-15.208,4.177c-0.691-1.2-1.506-2.327-2.461-3.336 C155.74,107.657,161.959,107.365,167.778,109.077z M30.404,72.215c1.294-1.449,3.144-2.167,5.078-1.959 c1.933,0.203,3.594,1.286,4.558,2.972l4.625,8.088c-2.445,14.597-14.263,19.646-20.531,21.307l-0.897-7.884 C22.307,86.564,24.92,78.354,30.404,72.215z M26.509,136.064l-0.645-0.861c-0.366,0.273-1.8,1.448-4.828,5.017 c0.574-5.877,1.626-12.533,2.635-18.128l4.159,4.262C27.489,128.371,26.975,131.731,26.509,136.064z M33.433,156.131 c-0.005-9.356,0.798-17.641,1.517-23.177c3.533,2.824,7.336,5.229,11.343,7.188C44.156,142.855,38.582,149.898,33.433,156.131z M52.536,160.545l1.655-17.206c3.017,0.984,6.114,1.728,9.265,2.234C59.359,149.994,55.646,155.377,52.536,160.545z M70.247,159.783c-0.16,0.407-0.242,0.83-0.264,1.252c-2.494-1.178-4.665-2.119-6.423-2.838c3.323-4.75,7.053-9.096,10.93-11.85 c0.344-0.007,0.687-0.013,1.031-0.025L70.247,159.783z M92.979,174.505c-5.777-4.11-11.353-7.449-16.272-10.083l18.822-8.061 l-2.651,16.424C92.782,173.37,92.824,173.955,92.979,174.505z M81.182,153.802l3.197-8.159l2.54-0.219 c3.039-0.266,6.033,0.578,8.479,2.29L81.182,153.802z M116.301,191.956c-0.738,0.386-1.316,0.989-1.688,1.704 c-5.672-6.29-11.724-11.687-17.686-16.243c0.63-0.016,1.26-0.176,1.832-0.493l28.425-15.704c0.805,0.264,1.578,0.642,2.284,1.145 c2.02,1.437,3.305,3.676,3.526,6.144l0.346,3.856C132.614,174.821,128.843,185.391,116.301,191.956z M102.084,165.948l1.536-9.517 c2.284,2.009,4.974,3.472,7.849,4.333L102.084,165.948z M134.897,186.455c0.554,2.314,1.412,4.538,2.546,6.606 c-2.613,1.012-6.362,1.984-10.422,1.463C130.329,191.925,132.903,189.131,134.897,186.455z M125.983,230.05 c3.133-9.614,1.393-20.178-4.653-28.258c-0.138-0.184-0.283-0.357-0.421-0.54c2.882,1.031,5.713,1.438,8.372,1.438 c5.567,0,10.37-1.752,13.278-3.124c0.326,0.295,0.661,0.581,1.006,0.859c5.34,4.311,12.019,6.236,18.823,5.416 c1.574-0.19,3.176-0.05,4.663,0.438c2.025,10.141,0.912,18.008-3.392,24.003c-5.95,8.288-18.571,13.432-37.512,15.287 c-4.222,0.412-8.219,0.455-12.009,0.241C119.663,242.131,123.824,236.674,125.983,230.05z M46.02,218.263 c1.102,7.301,2.646,13.867,3.644,17.756c-0.365,0.215-0.735,0.421-1.094,0.652c-1.284,0.827-2.546,1.604-3.786,2.336 C43.564,234.279,42.609,226.504,46.02,218.263z M24.324,219.255c3.433,9.933,8.799,18.943,12.168,24.079 c-3.25,1.456-6.276,2.5-9.028,3.106C25.459,238.354,23.807,227.641,24.324,219.255z M22.168,255.073 c8.364,0,18.705-3.928,30.734-11.675c7.418-4.779,16.678-5.009,24.166-0.604c3.716,2.187,8.292,4.464,13.661,6.387 c1.153,0.413,6.036,1.912,7.248,2.222c8.263,2.114,17.967,3.206,28.95,2.127c21.634-2.118,35.775-8.197,43.231-18.583 c1.237-1.723,2.266-3.57,3.111-5.524c-1.68,9.036-5.859,17.519-12.244,24.433c-9.831,10.646-23.777,16.422-38.261,15.841 c-8.302-0.332-16.578-2.548-23.931-6.405l-9.098-4.773c-7.236-3.796-15.869-2.349-22.033,3.015c-2.765,2.406-6.9,2.604-9.884,0.457 c-7.332-5.274-16.291-7.624-25.229-6.615c-4.483,0.504-9.54,0.597-13.936-0.472C19.739,255.009,20.895,255.073,22.168,255.073z M415.318,279.048c-1.726-0.009-3.296,1.081-3.848,2.732c-0.552,1.65,0.027,3.469,1.433,4.496l33.292,24.356l-83.501,2.671 c-1.01,0.032-2.009,0.384-2.738,1.083c-1.437,1.378-1.633,3.487-0.636,5.06l21.201,33.45l-79.253-39.926 c-1.431-0.72-3.151-0.52-4.374,0.511c-1.225,1.03-1.718,2.691-1.254,4.223l11.132,36.71l-29.79-26.4 c-1.19-1.054-2.893-1.304-4.334-0.636c-1.443,0.668-2.353,2.127-2.318,3.717l0.538,24.72l-8.786-9.197 c-0.891-0.932-2.16-1.473-3.439-1.317c-2.107,0.257-3.575,2.027-3.55,4.028l0.601,48.015l-25.329-35.906 c-0.694-0.984-1.795-1.604-2.997-1.686c-1.194-0.083-2.376,0.382-3.197,1.264l-23.62,25.33l1.58-25.264 c0.099-1.576-0.657-3.136-2.046-3.887c-1.978-1.069-4.348-0.339-5.41,1.519c-0.068,0.118-5.786,9.938-15.229,13.494 c2.735-12.603,0.044-24.794-8.038-36.322c-25.852-36.878-99.18-55.314-113.436-55.314c-15.224,0-38.974-2.888-46.76-19.871 c5.65,2.729,13.182,3.649,22.273,2.625c6.96-0.783,13.943,1.047,19.659,5.16c6.05,4.352,14.461,3.896,20.002-1.089 c3.59-3.228,8.875-3.89,13.149-1.646l8.819,4.627c8.398,4.406,17.848,6.936,27.328,7.315c16.826,0.658,33.035-6.036,44.458-18.407 c11.23-12.161,16.634-28.491,14.893-44.918c-0.496-4.683-2.576-9.127-6.134-12.211c-4.023-3.487-9.222-5-14.464-4.22 c-1.882,0.28-3.809,0.314-5.641-0.198c-7.721-2.157-12.643-8.198-13.285-15.366l-1.279-14.27c-0.324-3.613-1.702-7.094-4.127-9.791 c-4.186-4.657-10.448-6.487-16.309-5.025c-4.74,1.186-9.83-0.466-12.972-4.203l-3.585-4.265 c-4.365-5.193-11.011-7.952-17.767-7.362l-8.362,0.721c-16.018,1.382-31.649-4.427-42.875-15.933l-6.035-6.186 c-1.528-1.567-2.704-3.448-3.461-5.487c9.744-2.377,23.448-9.897,26.836-26.734c1.99-0.074,3.988,0.833,5.302,2.724 c0.478,0.689,0.715,1.51,0.867,2.334c1.316,7.13,6.724,12.767,13.803,14.38l40.836,9.298c7.256,1.65,14.934,1.685,22.203,0.096 c2.707-0.594,5.455-0.01,7.699,1.637c2.114,1.552,3.431,3.965,3.821,6.559l3.06,20.48c0.328,2.185,2.365,3.69,4.549,3.362 c2.185-0.328,3.69-2.365,3.362-4.549l-0.668-4.467c0.266,0.168,0.549,0.315,0.861,0.419l4.855,1.617 c0.416,0.139,0.835,0.259,1.253,0.39c2.382,9.748,10.365,25.201,27.474,27.102c0.936,0.104,1.824,0.152,2.668,0.152 c6.174,0,9.959-2.585,12.116-4.916c0.364-0.394,0.701-0.82,1.029-1.255c9.634,5.249,26.22,7.294,28.358,7.539 c0.155,0.018,0.309,0.026,0.461,0.026c2.005,0,3.734-1.504,3.968-3.543c0.253-2.194-1.322-4.178-3.516-4.431 c-7.413-0.854-19.982-3.377-25.917-6.855c0.63-2.43,0.995-5.146,1.058-8.173c0.046-2.198-0.072-4.215-0.223-5.821 c4.963-1.117,10.119,0.835,13.088,5.049c4.886,6.939,12.795,10.982,21.156,10.982c1.007,0,2.021-0.059,3.036-0.178 c2.194-0.258,3.764-2.245,3.506-4.439c-0.258-2.193-2.242-3.767-4.439-3.506c-6.526,0.765-12.935-2.093-16.718-7.466 c-5.173-7.344-14.411-10.487-22.993-7.817c-14.058,4.37-28.87,4.221-42.836-0.432l-4.855-1.617 c-1.583-0.527-3.258-0.01-4.285,1.175l-1.315-8.799l51.705-14.201c2.206-0.604,3.673,0.604,4.2,1.153 c0.527,0.548,1.678,2.055,0.992,4.229c-0.384,1.215-0.166,2.541,0.587,3.569s1.952,1.636,3.227,1.636h18.022 c21.3,0,41.828,7.756,57.799,21.839c0.73,0.645,1.671,1,2.646,1h15.521c11.379,0,21.998,5.608,28.408,15.003 c0.454,0.666,1.1,1.179,1.852,1.472c0.715,0.279,68.228,26.75,96.501,50.815c-28.009,13.188-52.002,17.848-71.389,13.862 c-1.462-0.301-2.968,0.236-3.909,1.395c-12.008,14.769-34.194,12.172-47.325,8.933l14.531-2.466 c1.811-0.307,3.179-1.807,3.319-3.637s-0.982-3.521-2.724-4.102c-0.083-0.027-3.969-1.338-9.411-3.834 c15.354,2.021,29.416,1.753,30.327,1.73c1.838-0.041,3.412-1.33,3.814-3.124s-0.471-3.632-2.115-4.453l-42.597-21.283l18.557-1.953 c4.59,0.637,9.364,0.476,14.136-0.594l9.676-2.172c20.678-4.649,41.94,4.409,52.918,22.519c0.753,1.241,2.072,1.928,3.425,1.928 c0.706,0,1.422-0.188,2.069-0.58c1.89-1.146,2.492-3.605,1.348-5.494c-12.762-21.053-37.48-31.567-61.512-26.179l-9.676,2.172 c-14.393,3.235-28.834-3.829-35.113-17.165c-4.423-9.392-12.572-16.772-22.359-20.251l-20.452-7.267 c-2.082-0.739-4.368,0.348-5.108,2.431c-0.739,2.081,0.349,4.368,2.431,5.108l20.451,7.267c7.792,2.769,14.279,8.645,17.8,16.12 c3.117,6.618,7.837,11.999,13.517,15.845l-16.567,1.744c-1.768,0.186-3.2,1.516-3.517,3.265c-0.317,1.749,0.558,3.497,2.147,4.291 l38.547,19.259c-10.948-0.783-24.658-2.593-34.439-6.729c-1.825-0.771-3.942-0.089-4.974,1.604 c-1.031,1.693-0.667,3.886,0.856,5.155c6.589,5.486,14.103,9.764,20.326,12.793l-26.815,4.551 c-2.179,0.369-3.645,2.435-3.274,4.612c0.331,1.952,2.023,3.332,3.938,3.332c0.223,0,0.447-0.019,0.674-0.058l8.839-1.5 c1.421,0.532,2.754,0.972,3.448,1.257c0.457,0.188,11.358,4.614,24.922,5.989c2.619,0.265,5.157,0.397,7.612,0.396 c13.985,0,25.246-4.285,32.964-12.583c14.489,2.481,31.068,0.734,49.514-5.146l18.789,11.655l-14.783,2.686 c-1.207,0.219-2.31,0.917-2.904,1.989c-0.99,1.787-0.498,3.932,1.022,5.122l43.22,33.801L415.318,279.048z M173.295,140.406 c2.012,0.376,4.031,0.672,6.057,0.887c-0.952,1.686-1.93,3.653-2.711,5.726c-0.325-0.498-0.643-1.007-0.949-1.54 C174.683,143.724,173.898,141.978,173.295,140.406z M183.13,153.839c0.267-3.65,3.178-8.949,5.39-12.12 c5.102-0.068,10.201-0.642,15.243-1.725c0.312,4.832-0.05,11.59-3.246,15.035c-1.771,1.908-4.392,2.644-8.022,2.238 C189.017,156.88,185.892,155.73,183.13,153.839z"/> </g> </g>
</svg>