<!DOCTYPE svg PUBLIC "-//W3C//DTD SVG 1.1//EN" "http://www.w3.org/Graphics/SVG/1.1/DTD/svg11.dtd">
<!-- Uploaded to: SVG Repo, www.svgrepo.com, Transformed by: SVG Repo Mixer Tools -->
<svg width="75px" height="75px" viewBox="-4.8 -4.8 57.60 57.60" xmlns="http://www.w3.org/2000/svg" fill="#000000" transform="matrix(1, 0, 0, 1, 0, 0)rotate(0)">
<g id="SVGRepo_bgCarrier" stroke-width="0"/>
<g id="SVGRepo_tracerCarrier" stroke-linecap="round" stroke-linejoin="round" stroke="#CCCCCC" stroke-width="0.096"/>
<g id="SVGRepo_iconCarrier">
<defs>
<style>.a{fill:none;stroke:#000000;stroke-linecap:round;stroke-linejoin:round;}</style>
</defs>
<path class="a" d="M31.6155,10.5584A1.1264,1.1264,0,0,0,30.2591,9.84c-1.0449.2613-10.6278,8.1129-4.9636,14.7689,4.476,5.26,14.2116-6.6878,14.2116-6.6878"/>
<path class="a" d="M20.4713,22.362c.505,3.1,3.1523,13.6717,5.3293,12.2784S22.8149,24.7689,19.74,22.9368c-3.3033-1.9681-11.0593-3.669-11.245-5.4281-.1979-1.8734,15.4945-9.306,18.2114-3.75s-6.5136,11.46-6.5136,11.46"/>
<rect class="a" x="13.2087" y="4.5" width="21.5825" height="39"/>
</g>
</svg>